<svg xmlns="http://www.w3.org/2000/svg" width="348" height="208" viewBox="0 0 348 208">
    <g fill="#005B9A" fill-rule="evenodd">
        <path d="M188.19 44.738h18.589v141.874h23.529V44.738h18.825V21.132H188.19zM27.976 119.071V95.466H42.33V37.63c0-11.802 7.058-16.525 16.47-16.525h32.235c9.412 0 16.47 4.723 16.47 16.525v74.361c0 3.777-3.293 7.081-7.058 7.081h-34.59v41.312c0 1.416.943 2.36 2.354 2.36h13.412c1.412 0 2.353-.944 2.353-2.36v-20.302h23.53v29.744c0 11.804-7.06 16.524-16.471 16.524H58.8c-9.412 0-16.47-4.72-16.47-16.524v-50.754H27.976zm37.882-71.999v48.394h15.765c1.412 0 2.353-.945 2.353-2.362V47.072c0-1.417-.941-2.36-2.353-2.36H68.21c-1.411 0-2.353.943-2.353 2.36zM115.818 64.54V37.63c0-9.442 4.706-16.525 16.47-16.525h32.237c11.764 0 16.47 7.083 16.47 16.525v31.633h-23.53v-22.19c0-1.417-.941-2.36-2.353-2.36H141.7c-1.412 0-2.353.943-2.353 2.36v9.678c0 23.607 41.647 63.738 41.647 84.983v28.092c0 12.984-7.06 16.525-16.47 16.525h-32.237c-9.411 0-16.47-3.305-16.47-16.525V140.08h23.53v20.302c0 1.416.94 2.36 2.353 2.36h13.41c1.413 0 2.354-.944 2.354-2.36v-10.86c0-23.841-41.647-61.376-41.647-84.982M279.781 47.098V160.41c0 1.417.941 2.361 2.353 2.361h13.412c1.412 0 2.352-.944 2.352-2.36V47.097c0-1.416-.94-2.36-2.352-2.36h-13.412c-1.412 0-2.353.944-2.353 2.36m-23.765 122.753V37.656c0-11.804 7.06-16.525 16.47-16.525h32.707c11.765 0 16.234 7.081 16.234 16.525v132.195c0 11.803-6.822 16.524-16.234 16.524h-32.707c-9.41 0-16.47-4.72-16.47-16.524"/>
    </g>
</svg>
